<svg width="100" height="100" viewBox="0 0 100 100" xmlns="http://www.w3.org/2000/svg">
  <!-- Outer circle -->
  <circle cx="50" cy="50" r="48" fill="none" stroke="#16a34a" stroke-width="2"/>

  <!-- Inner design - stylized leaves/resources symbol -->
  <g transform="translate(50, 50)">
    <!-- Center circle -->
    <circle cx="0" cy="0" r="8" fill="#16a34a"/>

    <!-- Leaf 1 -->
    <path d="M 0,-8 Q 15,-15 20,-25 Q 15,-20 0,-8" fill="#16a34a"/>

    <!-- Leaf 2 -->
    <path d="M 8,0 Q 15,15 25,20 Q 20,15 8,0" fill="#16a34a"/>

    <!-- Leaf 3 -->
    <path d="M 0,8 Q -15,15 -20,25 Q -15,20 0,8" fill="#16a34a"/>

    <!-- Leaf 4 -->
    <path d="M -8,0 Q -15,-15 -25,-20 Q -20,-15 -8,0" fill="#16a34a"/>

    <!-- Additional leaf shapes -->
    <path d="M 6,-6 Q 20,-10 28,-18 Q 22,-12 6,-6" fill="#16a34a"/>
    <path d="M 6,6 Q 10,20 18,28 Q 12,22 6,6" fill="#16a34a"/>
    <path d="M -6,6 Q -20,10 -28,18 Q -22,12 -6,6" fill="#16a34a"/>
    <path d="M -6,-6 Q -10,-20 -18,-28 Q -12,-22 -6,-6" fill="#16a34a"/>
  </g>

  <!-- Text curve - UNRE -->
  <defs>
    <path id="circlePath" d="M 50,10 A 40,40 0 0,1 90,50" />
  </defs>
  <text font-family="Arial, sans-serif" font-size="10" font-weight="bold" fill="#16a34a">
    <textPath href="#circlePath" startOffset="25%">
      UNRE
    </textPath>
  </text>
</svg>
